<svg width="22" height="19" viewBox="0 0 22 19" fill="none" xmlns="http://www.w3.org/2000/svg">
<path d="M11 19C10.8553 19.0008 10.7118 18.9726 10.5778 18.917C10.4438 18.8614 10.3219 18.7794 10.2191 18.6759L1.67325 9.98033C0.601288 8.87961 0 7.39354 0 5.84492C0 4.29631 0.601288 2.81023 1.67325 1.70952C2.75359 0.614766 4.21702 0 5.7427 0C7.26838 0 8.73182 0.614766 9.81216 1.70952L11 2.91661L12.1878 1.70952C13.2682 0.614766 14.7316 0 16.2573 0C17.783 0 19.2464 0.614766 20.3268 1.70952C21.3987 2.81023 22 4.29631 22 5.84492C22 7.39354 21.3987 8.87961 20.3268 9.98033L11.7809 18.6759C11.6781 18.7794 11.5562 18.8614 11.4222 18.917C11.2882 18.9726 11.1447 19.0008 11 19Z" fill="#CDCDCD"/>
</svg>
