<svg width="21" height="19" viewBox="0 0 21 19" fill="none" xmlns="http://www.w3.org/2000/svg">
<path d="M20.28 4.93597C20.0887 4.65973 19.7746 4.49501 19.439 4.49501H5.45623L4.27556 1.66101C3.95635 0.895725 3.21562 0.402588 2.38691 0.402588H0V2.4488H2.38691L7.24052 14.0969C7.3991 14.4775 7.77151 14.7261 8.18485 14.7261H16.3697C16.7963 14.7261 17.178 14.4611 17.3284 14.0631L20.3977 5.87825C20.5153 5.56314 20.4713 5.21119 20.28 4.93597ZM15.6607 12.6799H8.86726L6.3095 6.54123H17.9627L15.6607 12.6799Z" fill="white"/>
<path d="M8.69628 18.8183C9.54385 18.8183 10.2309 18.1313 10.2309 17.2837C10.2309 16.4361 9.54385 15.749 8.69628 15.749C7.84871 15.749 7.16162 16.4361 7.16162 17.2837C7.16162 18.1313 7.84871 18.8183 8.69628 18.8183Z" fill="white"/>
<path d="M15.8584 18.8183C16.706 18.8183 17.393 18.1313 17.393 17.2837C17.393 16.4361 16.706 15.749 15.8584 15.749C15.0108 15.749 14.3237 16.4361 14.3237 17.2837C14.3237 18.1313 15.0108 18.8183 15.8584 18.8183Z" fill="white"/>
</svg>
