<svg width="22" height="16" viewBox="0 0 22 16" fill="none" xmlns="http://www.w3.org/2000/svg">
<path d="M21.7323 7.47084C21.0324 6.25705 17.1833 0.166233 10.6441 0.363063C4.59706 0.516154 1.09785 5.83058 0.146502 7.47084C0.0505268 7.63707 0 7.82564 0 8.01759C0 8.20954 0.0505268 8.39811 0.146502 8.56434C0.835409 9.75626 4.52052 15.6721 10.9613 15.6721H11.2346C17.2817 15.519 20.7919 10.2046 21.7323 8.56434C21.8282 8.39811 21.8788 8.20954 21.8788 8.01759C21.8788 7.82564 21.8282 7.63707 21.7323 7.47084ZM11.18 13.4851C6.46695 13.5945 3.39421 9.55943 2.43192 8.01759C3.52543 6.25705 6.37947 2.65942 10.7535 2.55007C15.4446 2.42979 18.5283 6.47575 19.5015 8.01759C18.3752 9.77813 15.554 13.3758 11.18 13.4851Z" fill="#111111"/>
<path d="M10.9391 4.18994C10.1821 4.18994 9.44216 4.41441 8.81277 4.83495C8.18338 5.2555 7.69283 5.85323 7.40315 6.55257C7.11347 7.25192 7.03768 8.02145 7.18536 8.76387C7.33303 9.50628 7.69755 10.1882 8.2328 10.7235C8.76805 11.2587 9.45 11.6233 10.1924 11.7709C10.9348 11.9186 11.7044 11.8428 12.4037 11.5531C13.1031 11.2635 13.7008 10.7729 14.1213 10.1435C14.5419 9.51413 14.7663 8.77417 14.7663 8.0172C14.7663 7.00215 14.3631 6.02867 13.6454 5.31092C12.9276 4.59317 11.9541 4.18994 10.9391 4.18994ZM10.9391 9.65746C10.6147 9.65746 10.2975 9.56126 10.0278 9.38103C9.75807 9.20079 9.54783 8.94462 9.42368 8.6449C9.29954 8.34519 9.26705 8.01538 9.33034 7.69721C9.39363 7.37903 9.54985 7.08676 9.77925 6.85737C10.0086 6.62797 10.3009 6.47176 10.6191 6.40847C10.9373 6.34518 11.2671 6.37766 11.5668 6.50181C11.8665 6.62595 12.1227 6.83619 12.3029 7.10593C12.4831 7.37567 12.5793 7.69279 12.5793 8.0172C12.5793 8.45223 12.4065 8.86943 12.0989 9.17704C11.7913 9.48465 11.3741 9.65746 10.9391 9.65746Z" fill="#111111"/>
</svg>
