<svg width="23" height="22" viewBox="0 0 23 22" fill="none" xmlns="http://www.w3.org/2000/svg">
<path d="M17.8904 21.9943C17.7061 21.9951 17.5243 21.9514 17.3603 21.867L11.4827 18.7769L5.60515 21.867C5.4143 21.9678 5.19911 22.0128 4.98406 21.9969C4.76901 21.981 4.56272 21.9048 4.38865 21.777C4.21457 21.6492 4.07968 21.4749 3.99933 21.2739C3.91897 21.073 3.89637 20.8534 3.93408 20.6402L5.08654 14.1244L0.338397 9.49499C0.190257 9.34653 0.0851686 9.16037 0.0344097 8.95647C-0.0163492 8.75257 -0.0108622 8.53864 0.0502817 8.33764C0.117078 8.13195 0.23995 7.94918 0.404952 7.81008C0.569955 7.67097 0.770482 7.58109 0.983777 7.55065L7.55281 6.59005L10.4455 0.65287C10.5399 0.457197 10.6872 0.292174 10.8707 0.176708C11.0541 0.0612412 11.2662 0 11.4827 0C11.6992 0 11.9113 0.0612412 12.0948 0.176708C12.2782 0.292174 12.4256 0.457197 12.5199 0.65287L15.4472 6.57848L22.0162 7.53908C22.2295 7.56952 22.43 7.6594 22.595 7.7985C22.7601 7.93761 22.8829 8.12038 22.9497 8.32607C23.0109 8.52707 23.0163 8.741 22.9656 8.9449C22.9148 9.14879 22.8097 9.33496 22.6616 9.48342L17.9135 14.1128L19.0659 20.6287C19.1071 20.8456 19.0855 21.0699 19.0038 21.275C18.9221 21.48 18.7837 21.6574 18.6049 21.786C18.3962 21.9329 18.145 22.0061 17.8904 21.9943Z" fill="#231F20" fill-opacity="0.2"/>
</svg>
