<svg width="22" height="22" viewBox="0 0 22 22" fill="none" xmlns="http://www.w3.org/2000/svg">
<path d="M13.084 11C13.084 12.1045 12.1885 13 11.084 13C9.97947 13 9.08398 12.1045 9.08398 11C9.08398 9.89549 9.97947 9 11.084 9C12.1885 9 13.084 9.89549 13.084 11Z" fill="#7D7D7D"/>
<path d="M14.4369 5H7.73104C6.27137 5 5.08398 6.18739 5.08398 7.64706V14.3529C5.08398 15.8126 6.27137 17 7.73104 17H14.4369C15.8966 17 17.084 15.8126 17.084 14.3529V7.64706C17.084 6.18739 15.8966 5 14.4369 5ZM11.084 14.3088C9.25948 14.3088 7.77516 12.8245 7.77516 11C7.77516 9.17549 9.25948 7.69118 11.084 7.69118C12.9085 7.69118 14.3928 9.17549 14.3928 11C14.3928 12.8245 12.9085 14.3088 11.084 14.3088ZM14.8781 7.86765C14.5126 7.86765 14.2163 7.5714 14.2163 7.20588C14.2163 6.84036 14.5126 6.54412 14.8781 6.54412C15.2436 6.54412 15.5399 6.84036 15.5399 7.20588C15.5399 7.5714 15.2436 7.86765 14.8781 7.86765Z" fill="#7D7D7D"/>
<path d="M16.1759 0H5.79242C2.59854 0 0 2.59854 0 5.79242V16.1759C0 19.3697 2.59854 21.9683 5.79242 21.9683H16.1759C19.3697 21.9683 21.9683 19.3697 21.9683 16.1759V5.79242C21.9683 2.59854 19.3697 0 16.1759 0ZM18.1067 14.2451C18.1067 16.3743 16.3743 18.1067 14.2451 18.1067H7.72323C5.59398 18.1067 3.86161 16.3743 3.86161 14.2451V7.72323C3.86161 5.59398 5.59398 3.86161 7.72323 3.86161H14.2451C16.3743 3.86161 18.1067 5.59398 18.1067 7.72323V14.2451Z" fill="#7D7D7D"/>
</svg>
