<svg width="42" height="26" viewBox="0 0 42 26" fill="none" xmlns="http://www.w3.org/2000/svg">
<path d="M38.4122 0.231918C38.8929 0.232837 39.3882 0.209433 39.8635 0.294691C40.2147 0.357631 40.5416 0.513268 40.7952 0.766449C41.05 1.02088 41.2052 1.34779 41.2678 1.70027C41.3538 2.17579 41.3308 2.66962 41.3308 3.15082C41.3308 3.15082 41.3308 22.8751 41.3308 22.8778C41.3308 23.3586 41.3534 23.8555 41.2673 24.3308C41.2039 24.6814 41.0489 25.0083 40.7957 25.2614C40.5423 25.5147 40.2158 25.6706 39.8652 25.7337C39.3894 25.8185 38.8933 25.7965 38.4121 25.7965H3.29053C3.2886 25.7965 3.28676 25.7965 3.28484 25.7965C2.80506 25.7965 2.31316 25.8187 1.83889 25.734C1.48691 25.6711 1.16009 25.5152 0.90624 25.261C0.653644 25.0079 0.497004 24.6778 0.434649 24.3282C0.349809 23.8534 0.371541 23.3582 0.372043 22.8779C0.372043 22.8779 0.372043 3.16561 0.372043 3.1509C0.372043 2.50002 0.296481 1.78678 0.602071 1.18638C0.758795 0.878538 1.01916 0.618502 1.32684 0.46203C1.92072 0.160034 2.64483 0.233339 3.29061 0.232002H38.4122" fill="white"/>
<path d="M16.2794 19.3626C19.7922 19.3626 22.6399 16.5149 22.6399 13.0021C22.6399 9.48928 19.7922 6.6416 16.2794 6.6416C12.7666 6.6416 9.91895 9.48928 9.91895 13.0021C9.91895 16.5149 12.7666 19.3626 16.2794 19.3626Z" fill="#EA001B"/>
<path d="M25.3658 19.3626C28.8786 19.3626 31.7263 16.5149 31.7263 13.0021C31.7263 9.48928 28.8786 6.6416 25.3658 6.6416C21.8531 6.6416 19.0054 9.48928 19.0054 13.0021C19.0054 16.5149 21.8531 19.3626 25.3658 19.3626Z" fill="#FFA200" fill-opacity="0.8"/>
</svg>
