<svg width="42" height="26" viewBox="0 0 42 26" fill="none" xmlns="http://www.w3.org/2000/svg">
<path d="M38.9518 0.432846C39.4325 0.433765 39.9277 0.410361 40.4031 0.495619C40.7542 0.558559 41.0812 0.714195 41.3348 0.967377C41.5896 1.22181 41.7448 1.54872 41.8074 1.9012C41.8933 2.37672 41.8703 2.87054 41.8703 3.35175C41.8703 3.35175 41.8703 23.076 41.8703 23.0788C41.8703 23.5595 41.8929 24.0564 41.8069 24.5317C41.7435 24.8824 41.5885 25.2092 41.3353 25.4623C41.0819 25.7156 40.7554 25.8715 40.4047 25.9346C39.929 26.0194 39.4329 25.9974 38.9517 25.9974H3.83008C3.82815 25.9974 3.82632 25.9974 3.82439 25.9974C3.34461 25.9974 2.85271 26.0196 2.37844 25.9349C2.02646 25.872 1.69964 25.7161 1.44579 25.4619C1.19319 25.2089 1.03655 24.8787 0.974199 24.5291C0.88936 24.0543 0.911092 23.5591 0.911594 23.0788C0.911594 23.0788 0.911594 3.36654 0.911594 3.35183C0.911594 2.70095 0.836032 1.98771 1.14162 1.38731C1.29835 1.07947 1.55872 0.81943 1.86639 0.662957C2.46027 0.360962 3.18438 0.434267 3.83016 0.432929H38.9518" fill="white"/>
<path d="M16.5357 17.9523L18.0644 8.88483H20.5096L18.9797 17.9523H16.5357ZM27.8141 9.0803C27.3298 8.8966 26.5706 8.69946 25.6226 8.69946C23.2064 8.69946 21.5045 9.92929 21.4899 11.6919C21.4763 12.9948 22.705 13.7217 23.6325 14.1554C24.5844 14.6 24.9043 14.8833 24.8997 15.2802C24.8936 15.888 24.1396 16.1656 23.4367 16.1656C22.4581 16.1656 21.9382 16.0281 21.1351 15.6897L20.8199 15.5456L20.4768 17.5754C21.0479 17.8287 22.104 18.0478 23.2006 18.0592C25.7711 18.0592 27.4397 16.8434 27.4587 14.9612C27.4678 13.9296 26.8164 13.1447 25.4056 12.4975C24.5509 12.078 24.0275 11.7981 24.033 11.3734C24.033 10.9965 24.4761 10.5935 25.4335 10.5935C26.233 10.5809 26.8124 10.7572 27.2637 10.9409L27.4828 11.0455L27.8141 9.0803ZM34.1066 8.88469H32.2172C31.6319 8.88469 31.1938 9.04616 30.9368 9.63664L27.3052 17.9464H29.873C29.873 17.9464 30.2927 16.8291 30.3876 16.5837C30.6682 16.5837 33.1627 16.5876 33.5193 16.5876C33.5924 16.9051 33.8168 17.9464 33.8168 17.9464H36.0858L34.1066 8.88442V8.88469ZM31.1088 14.7399C31.3111 14.2175 32.0831 12.2051 32.0831 12.2051C32.0687 12.2293 32.2838 11.6802 32.4072 11.3397L32.5725 12.1215C32.5725 12.1215 33.0407 14.286 33.1386 14.7398H31.1088V14.7399ZM14.4598 8.88469L12.0659 15.0683L11.8108 13.8117C11.3651 12.3631 9.97661 10.7937 8.42432 10.008L10.6133 17.9379L13.2005 17.935L17.0502 8.8846L14.4598 8.88456" fill="#0E4595"/>
<path d="M8.08017 8.53247H3.80876L3.7749 8.73703C7.09802 9.55085 9.29679 11.5175 10.2097 13.8809L9.28096 9.36281C9.12066 8.74024 8.65559 8.55442 8.08027 8.53272" fill="#F2AE14"/>
</svg>
