<svg width="41" height="26" viewBox="0 0 41 26" fill="none" xmlns="http://www.w3.org/2000/svg">
<path d="M38.0484 0.219955C38.5291 0.220875 39.0244 0.19747 39.4997 0.282728C39.8509 0.345668 40.1779 0.501305 40.4315 0.754486C40.6862 1.00892 40.8415 1.33583 40.9041 1.68831C40.99 2.16383 40.967 2.65765 40.967 3.13886C40.967 3.13886 40.967 22.8631 40.967 22.8659C40.967 23.3467 40.9896 23.8435 40.9036 24.3188C40.8401 24.6695 40.6852 24.9963 40.432 25.2494C40.1785 25.5028 39.8521 25.6586 39.5014 25.7217C39.0257 25.8065 38.5296 25.7845 38.0484 25.7845H2.92676C2.92483 25.7845 2.923 25.7845 2.92107 25.7845C2.44129 25.7845 1.94939 25.8068 1.47512 25.722C1.12314 25.6591 0.796321 25.5033 0.54247 25.249C0.289874 24.996 0.133234 24.6658 0.0708791 24.3163C-0.0139606 23.8414 0.00777173 23.3462 0.00827324 22.866C0.00827324 22.866 0.00827324 3.15365 0.00827324 3.13894C0.00827324 2.48806 -0.0672883 1.77482 0.238302 1.17442C0.395025 0.866575 0.655395 0.60654 0.963075 0.450067C1.55695 0.148071 2.28106 0.221376 2.92684 0.220039H38.0484" fill="white"/>
<path d="M10.1683 9.24524C9.77807 8.97698 9.26887 8.84253 8.64068 8.84253H6.20869C6.01611 8.84253 5.90972 8.93884 5.88951 9.13123L4.90154 15.3329C4.89127 15.3938 4.90651 15.4495 4.94712 15.5001C4.98749 15.5509 5.03827 15.5761 5.09909 15.5761H6.25427C6.45688 15.5761 6.56824 15.48 6.58869 15.2874L6.86224 13.6155C6.87223 13.5344 6.90786 13.4685 6.96868 13.4178C7.02945 13.3672 7.10546 13.334 7.19666 13.3189C7.28786 13.3038 7.37386 13.2962 7.45507 13.2962C7.53605 13.2962 7.63227 13.3013 7.74391 13.3114C7.85528 13.3215 7.92627 13.3265 7.9567 13.3265C8.8281 13.3265 9.51208 13.0809 10.0087 12.5893C10.5051 12.0979 10.7535 11.4165 10.7535 10.5449C10.7535 9.94711 10.5583 9.51392 10.1683 9.24524ZM8.91433 11.1074C8.8635 11.4621 8.73193 11.695 8.51914 11.8065C8.30631 11.9182 8.00232 11.9737 7.60718 11.9737L7.10555 11.9889L7.36401 10.3625C7.38417 10.2511 7.45001 10.1954 7.56156 10.1954H7.85044C8.25557 10.1954 8.54962 10.2538 8.73202 10.3701C8.91433 10.4867 8.97515 10.7326 8.91433 11.1074Z" fill="#003087"/>
<path d="M35.8334 8.84253H34.7087C34.597 8.84253 34.5312 8.89828 34.5111 9.00974L33.5231 15.3329L33.5078 15.3633C33.5078 15.4142 33.5281 15.4621 33.5687 15.5077C33.609 15.5533 33.6599 15.5761 33.7206 15.5761H34.7239C34.9162 15.5761 35.0226 15.48 35.0432 15.2873L36.0311 9.07042V9.05532C36.0311 8.91347 35.965 8.84253 35.8334 8.84253Z" fill="#009CDE"/>
<path d="M22.2449 11.2899C22.2449 11.2394 22.2245 11.1912 22.1842 11.1456C22.1435 11.1001 22.0979 11.0771 22.0474 11.0771H20.8769C20.7653 11.0771 20.6741 11.1281 20.6033 11.2291L18.9922 13.6004L18.3234 11.3204C18.2725 11.1584 18.1611 11.0771 17.989 11.0771H16.8489C16.7981 11.0771 16.7525 11.1 16.7122 11.1456C16.6715 11.1912 16.6514 11.2394 16.6514 11.2899C16.6514 11.3104 16.7502 11.6092 16.9477 12.1868C17.1453 12.7644 17.3581 13.3876 17.5861 14.0565C17.8142 14.7252 17.9331 15.0801 17.9433 15.1204C17.1123 16.2554 16.6969 16.8634 16.6969 16.9443C16.6969 17.0762 16.7628 17.142 16.8945 17.142H18.065C18.1764 17.142 18.2676 17.0914 18.3386 16.9901L22.2146 11.3963C22.2347 11.3762 22.2449 11.3409 22.2449 11.2899Z" fill="#003087"/>
<path d="M33.1434 11.0767H31.9881C31.8462 11.0767 31.7603 11.2439 31.7299 11.5783C31.4661 11.1732 30.9851 10.9702 30.2858 10.9702C29.5562 10.9702 28.9354 11.2439 28.4238 11.7911C27.912 12.3383 27.6562 12.9819 27.6562 13.7215C27.6562 14.3195 27.831 14.7957 28.1805 15.1503C28.5302 15.5052 28.9988 15.6823 29.5867 15.6823C29.8805 15.6823 30.1794 15.6214 30.4834 15.4999C30.7874 15.3783 31.0253 15.2162 31.1979 15.0135C31.1979 15.0237 31.1876 15.0692 31.1675 15.1502C31.147 15.2314 31.137 15.2923 31.137 15.3326C31.137 15.4949 31.2027 15.5758 31.3347 15.5758H32.3835C32.5758 15.5758 32.6874 15.4797 32.7178 15.287L33.341 11.3199C33.351 11.2591 33.3358 11.2034 33.2954 11.1527C33.2548 11.1021 33.2042 11.0767 33.1434 11.0767ZM31.1598 14.0711C30.9014 14.3244 30.5899 14.451 30.2251 14.451C29.9311 14.451 29.6931 14.3701 29.5107 14.2079C29.3282 14.046 29.237 13.823 29.237 13.5391C29.237 13.1644 29.3637 12.8475 29.617 12.5891C29.8701 12.3307 30.1845 12.2015 30.5595 12.2015C30.8429 12.2015 31.0786 12.2851 31.2662 12.4523C31.4536 12.6195 31.5475 12.8501 31.5475 13.144C31.5475 13.5087 31.4182 13.8179 31.1598 14.0711Z" fill="#009CDE"/>
<path d="M15.8759 11.0767H14.7207C14.5787 11.0767 14.4927 11.2439 14.4623 11.5783C14.1887 11.1732 13.7073 10.9702 13.0183 10.9702C12.2887 10.9702 11.6679 11.2439 11.1562 11.7911C10.6444 12.3383 10.3887 12.9819 10.3887 13.7215C10.3887 14.3195 10.5635 14.7957 10.9131 15.1503C11.2627 15.5052 11.7313 15.6823 12.3191 15.6823C12.6027 15.6823 12.8967 15.6214 13.2007 15.4999C13.5046 15.3783 13.7479 15.2162 13.9303 15.0135C13.8896 15.1351 13.8695 15.2415 13.8695 15.3326C13.8695 15.4949 13.9353 15.5758 14.067 15.5758H15.1158C15.3082 15.5758 15.4198 15.4797 15.4503 15.287L16.0734 11.3199C16.0834 11.2591 16.0682 11.2034 16.0278 11.1527C15.9873 11.1021 15.9367 11.0767 15.8759 11.0767ZM13.8923 14.0786C13.6339 14.3272 13.317 14.451 12.9423 14.451C12.6483 14.451 12.4127 14.3701 12.2355 14.2079C12.0581 14.046 11.9695 13.823 11.9695 13.5391C11.9695 13.1644 12.0961 12.8475 12.3495 12.5891C12.6027 12.3307 12.9168 12.2015 13.2919 12.2015C13.5755 12.2015 13.8111 12.2851 13.9987 12.4523C14.1861 12.6195 14.2799 12.8501 14.2799 13.144C14.2799 13.5189 14.1507 13.8306 13.8923 14.0786Z" fill="#003087"/>
<path d="M27.4354 9.24524C27.0452 8.97698 26.5361 8.84253 25.9078 8.84253H23.491C23.2882 8.84253 23.1767 8.93884 23.1566 9.13123L22.1686 15.3328C22.1584 15.3938 22.1736 15.4495 22.2142 15.5001C22.2544 15.5508 22.3054 15.5761 22.3662 15.5761H23.6125C23.7341 15.5761 23.8151 15.5103 23.8557 15.3785L24.1294 13.6154C24.1394 13.5344 24.1749 13.4685 24.2358 13.4178C24.2966 13.3671 24.3725 13.334 24.4638 13.3188C24.555 13.3038 24.641 13.2962 24.7222 13.2962C24.8032 13.2962 24.8994 13.3013 25.0109 13.3114C25.1224 13.3215 25.1935 13.3264 25.2237 13.3264C26.0952 13.3264 26.7791 13.0809 27.2757 12.5893C27.7723 12.0979 28.0205 11.4165 28.0205 10.5449C28.0206 9.94711 27.8254 9.51392 27.4354 9.24524ZM25.8774 11.7457C25.6544 11.8977 25.32 11.9737 24.8742 11.9737L24.3878 11.9889L24.6462 10.3625C24.6663 10.2511 24.7322 10.1954 24.8438 10.1954H25.1173C25.3402 10.1954 25.5175 10.2055 25.6495 10.2257C25.781 10.2461 25.9078 10.3093 26.0294 10.4157C26.1511 10.5221 26.2118 10.6767 26.2118 10.8793C26.2118 11.3049 26.1002 11.5937 25.8774 11.7457Z" fill="#009CDE"/>
</svg>
