<svg width="22" height="22" viewBox="0 0 22 22" fill="none" xmlns="http://www.w3.org/2000/svg">
<path d="M20.7468 1.25286C19.9419 0.44778 18.9722 0.045166 17.8384 0.045166H4.1165C2.98265 0.045166 2.01292 0.44778 1.20769 1.25286C0.402614 2.05808 0 3.02777 0 4.16167V17.8834C0 19.0172 0.402614 19.987 1.20769 20.7922C2.01292 21.5974 2.98265 22 4.1165 22H17.8382C18.9721 22 19.9418 21.5974 20.7467 20.7922C21.5519 19.987 21.9545 19.0172 21.9545 17.8834V4.16167C21.9545 3.02777 21.5518 2.05793 20.7468 1.25286ZM16.7948 8.49269C16.8044 8.57845 16.8092 8.70687 16.8092 8.87869C16.8092 9.67916 16.6924 10.482 16.459 11.287C16.2257 12.0923 15.8683 12.8642 15.3869 13.6026C14.906 14.341 14.3318 14.9939 13.6649 15.5609C12.9978 16.1276 12.1975 16.5804 11.2634 16.9184C10.3298 17.257 9.3291 17.4262 8.26194 17.4262C6.60402 17.4262 5.06987 16.9781 3.65952 16.0827C3.88821 16.1112 4.12656 16.1255 4.37418 16.1255C5.75594 16.1255 6.99948 15.6967 8.10489 14.8389C7.45701 14.8296 6.87802 14.6297 6.36827 14.2386C5.85837 13.8479 5.50352 13.3525 5.30337 12.7521C5.55103 12.7902 5.73682 12.809 5.86068 12.809C6.07029 12.809 6.31335 12.771 6.58961 12.695C5.89402 12.5613 5.30807 12.2162 4.83161 11.6588C4.35506 11.1013 4.11685 10.4653 4.11685 9.75065V9.72206C4.62175 9.96012 5.0982 10.084 5.54613 10.0936C4.67897 9.51224 4.24542 8.67858 4.24542 7.59229C4.24542 7.05861 4.38349 6.55362 4.65984 6.07716C5.41256 7.00154 6.32752 7.73993 7.40415 8.29259C8.48087 8.84519 9.63399 9.15504 10.8632 9.22167C10.8156 9.04064 10.7917 8.81185 10.7917 8.5356C10.7917 7.70644 11.0847 6.99904 11.6708 6.41294C12.2567 5.82689 12.9643 5.53377 13.7932 5.53377C14.6701 5.53377 15.3992 5.84832 15.9804 6.47727C16.638 6.35341 17.2767 6.1103 17.8959 5.74834C17.6577 6.48188 17.2144 7.03939 16.5667 7.42058C17.1859 7.33467 17.7622 7.17276 18.2957 6.93456C17.8956 7.54438 17.3951 8.0637 16.7948 8.49269Z" fill="#7D7D7D"/>
</svg>
