<svg width="41" height="26" viewBox="0 0 41 26" fill="none" xmlns="http://www.w3.org/2000/svg">
<path d="M38.0484 0.00682035C38.5291 0.00773979 39.0244 -0.0156643 39.4997 0.0695933C39.8509 0.132533 40.1779 0.28817 40.4315 0.541352C40.6862 0.795787 40.8415 1.12269 40.9041 1.47517C40.99 1.95069 40.967 2.44452 40.967 2.92572C40.967 2.92572 40.967 22.65 40.967 22.6527C40.967 23.1335 40.9896 23.6304 40.9036 24.1057C40.8401 24.4564 40.6852 24.7832 40.432 25.0363C40.1785 25.2896 39.8521 25.4455 39.5014 25.5086C39.0257 25.5934 38.5296 25.5714 38.0484 25.5714H2.92676C2.92483 25.5714 2.923 25.5714 2.92107 25.5714C2.44129 25.5714 1.94939 25.5936 1.47512 25.5089C1.12314 25.446 0.796321 25.2901 0.54247 25.0359C0.289874 24.7828 0.133234 24.4527 0.0708791 24.1031C-0.0139606 23.6283 0.00777173 23.1331 0.00827324 22.6528C0.00827324 22.6528 0.00827324 2.94052 0.00827324 2.92581C0.00827324 2.27492 -0.0672883 1.56168 0.238302 0.961287C0.395025 0.65344 0.655395 0.393405 0.963075 0.236932C1.55695 -0.0650636 2.28106 0.00824126 2.92684 0.00690389H38.0484" fill="white"/>
<path d="M10.7753 8.30663C11.1417 7.84842 11.3902 7.23322 11.3246 6.60449C10.7883 6.63116 10.1339 6.95831 9.75505 7.41686C9.41485 7.80955 9.11378 8.45057 9.19227 9.05289C9.79433 9.10505 10.3957 8.75198 10.7753 8.30663Z" fill="black"/>
<path d="M11.3178 9.17024C10.4436 9.11816 9.70025 9.6664 9.28282 9.6664C8.86515 9.6664 8.2258 9.19648 7.53429 9.2091C6.63432 9.22231 5.79922 9.73118 5.3425 10.5405C4.40317 12.1596 5.09459 14.5612 6.0081 15.8798C6.45169 16.5322 6.9863 17.2505 7.69076 17.2247C8.35636 17.1987 8.61723 16.7938 9.42626 16.7938C10.2347 16.7938 10.4697 17.2247 11.1743 17.2117C11.9049 17.1987 12.3617 16.559 12.8053 15.906C13.3142 15.1623 13.5225 14.4443 13.5357 14.4049C13.5225 14.3918 12.1267 13.8564 12.1139 12.2508C12.1007 10.9064 13.2097 10.267 13.2619 10.2273C12.6356 9.30088 11.6571 9.1964 11.3178 9.17024Z" fill="black"/>
<path d="M18.9297 7.35083C20.8299 7.35083 22.153 8.66062 22.153 10.5675C22.153 12.4812 20.8026 13.7978 18.8821 13.7978H16.7783V17.1434H15.2583V7.35083H18.9297ZM16.7783 12.522H18.5224C19.8458 12.522 20.5989 11.8095 20.5989 10.5743C20.5989 9.33925 19.8457 8.63345 18.5292 8.63345H16.7783V12.522Z" fill="black"/>
<path d="M22.5503 15.1146C22.5503 13.8659 23.5072 13.0991 25.2039 13.004L27.1582 12.8887V12.339C27.1582 11.5449 26.6221 11.0699 25.7265 11.0699C24.878 11.0699 24.3486 11.477 24.2198 12.115H22.8355C22.9169 10.8255 24.0162 9.87549 25.7807 9.87549C27.5112 9.87549 28.6173 10.7917 28.6173 12.2235V17.1435H27.2125V15.9695H27.1787C26.7648 16.7635 25.8621 17.2656 24.9257 17.2656C23.5276 17.2658 22.5503 16.3972 22.5503 15.1146ZM27.1581 14.47V13.9067L25.4004 14.0152C24.5249 14.0763 24.0296 14.4631 24.0296 15.0739C24.0296 15.6981 24.5453 16.1053 25.3325 16.1053C26.3573 16.1054 27.1581 15.3996 27.1581 14.47Z" fill="black"/>
<path d="M29.9431 19.7701V18.5825C30.0515 18.6096 30.2958 18.6096 30.418 18.6096C31.0966 18.6096 31.4631 18.3246 31.687 17.5917C31.687 17.5781 31.816 17.1574 31.816 17.1506L29.2373 10.0046H30.8251L32.6305 15.8138H32.6575L34.4628 10.0046H36.01L33.336 17.517C32.7255 19.2476 32.0197 19.8041 30.5403 19.8041C30.418 19.804 30.0515 19.7905 29.9431 19.7701Z" fill="black"/>
</svg>
