<svg width="42" height="26" viewBox="0 0 42 26" fill="none" xmlns="http://www.w3.org/2000/svg">
<path d="M38.399 0.00682035C38.8797 0.00773979 39.375 -0.0156643 39.8503 0.0695933C40.2015 0.132533 40.5285 0.28817 40.7821 0.541352C41.0368 0.795787 41.1921 1.12269 41.2547 1.47517C41.3406 1.95069 41.3176 2.44452 41.3176 2.92572C41.3176 2.92572 41.3176 22.65 41.3176 22.6527C41.3176 23.1335 41.3402 23.6304 41.2542 24.1057C41.1907 24.4564 41.0357 24.7832 40.7826 25.0363C40.5291 25.2896 40.2026 25.4455 39.852 25.5086C39.3762 25.5934 38.8802 25.5714 38.3989 25.5714H3.27734C3.27542 25.5714 3.27358 25.5714 3.27166 25.5714C2.79188 25.5714 2.29997 25.5936 1.82571 25.5089C1.47373 25.446 1.14691 25.2901 0.893056 25.0359C0.64046 24.7828 0.48382 24.4527 0.421465 24.1031C0.336625 23.6283 0.358358 23.1331 0.358859 22.6528C0.358859 22.6528 0.358859 2.94052 0.358859 2.92581C0.358859 2.27492 0.283298 1.56168 0.588888 0.961287C0.745611 0.65344 1.00598 0.393405 1.31366 0.236932C1.90754 -0.0650636 2.63164 0.00824126 3.27743 0.00690389H38.399" fill="white"/>
<path d="M8.3132 8.87012L4.62549 17.0494H9.04019L9.58749 15.7453H10.8385L11.3858 17.0494H16.2451V16.0541L16.6781 17.0494H19.1918L19.6248 16.033V17.0494H29.7309L30.9597 15.7791L32.1104 17.0494L37.3011 17.0599L33.6018 12.9826L37.3011 8.87012H32.1909L30.9947 10.1169L29.8803 8.87012H18.8861L17.942 10.9813L16.9758 8.87012H12.5703V9.83159L12.0803 8.87012C12.0803 8.87012 8.3132 8.87012 8.3132 8.87012ZM9.16742 10.0316H11.3193L13.7654 15.578V10.0316H16.1228L18.0121 14.0083L19.7533 10.0316H22.0988V15.9008H20.6716L20.66 11.3017L18.5792 15.9008H17.3025L15.2101 11.3017V15.9008H12.2739L11.7173 14.585H8.70997L8.15449 15.8996H6.58134L9.16742 10.0316ZM23.4046 10.0316H29.208L30.983 11.9533L32.8152 10.0316H34.5902L31.8933 12.9814L34.5902 15.8973H32.7347L30.9597 13.9533L29.1182 15.8973H23.4046V10.0316ZM10.2143 11.0246L9.22348 13.3686H11.2039L10.2143 11.0246ZM24.8377 11.2468V12.3182H28.0038V13.5124H24.8377V14.6821H28.3889L30.039 12.9592L28.4589 11.2458H24.8377V11.2468Z" fill="#26A6D1"/>
</svg>
