<svg width="41" height="26" viewBox="0 0 41 26" fill="none" xmlns="http://www.w3.org/2000/svg">
<path d="M38.0484 0.432846C38.5291 0.433765 39.0244 0.410361 39.4997 0.495619C39.8509 0.558559 40.1779 0.714195 40.4315 0.967377C40.6862 1.22181 40.8415 1.54872 40.9041 1.9012C40.99 2.37672 40.967 2.87054 40.967 3.35175C40.967 3.35175 40.967 23.076 40.967 23.0788C40.967 23.5595 40.9896 24.0564 40.9036 24.5317C40.8401 24.8824 40.6852 25.2092 40.432 25.4623C40.1785 25.7156 39.8521 25.8715 39.5014 25.9346C39.0257 26.0194 38.5296 25.9974 38.0484 25.9974H2.92676C2.92483 25.9974 2.923 25.9974 2.92107 25.9974C2.44129 25.9974 1.94939 26.0196 1.47512 25.9349C1.12314 25.872 0.796321 25.7161 0.54247 25.4619C0.289874 25.2089 0.133234 24.8787 0.0708791 24.5291C-0.0139606 24.0543 0.00777173 23.5591 0.00827324 23.0788C0.00827324 23.0788 0.00827324 3.36654 0.00827324 3.35183C0.00827324 2.70095 -0.0672883 1.98771 0.238302 1.38731C0.395025 1.07947 0.655395 0.81943 0.963075 0.662957C1.55695 0.360962 2.28106 0.434267 2.92684 0.432929H38.0484" fill="white"/>
<path fill-rule="evenodd" clip-rule="evenodd" d="M3.68995 10.828C3.68961 10.7398 3.70267 10.7078 3.80258 10.7093C4.31506 10.7165 4.82808 10.7022 5.34023 10.7181C6.0937 10.7416 6.77836 10.9611 7.3368 11.4933C7.7212 11.8595 7.96279 12.3079 8.0579 12.8281C8.24734 13.8646 7.95513 14.744 7.16562 15.4471C6.7346 15.8309 6.21812 16.0239 5.64756 16.0699C5.01871 16.1206 4.38807 16.0803 3.75842 16.094C3.68309 16.0957 3.69148 16.055 3.69155 16.0077C3.69208 15.4771 3.69321 11.6859 3.68995 10.828ZM4.73829 15.082C4.73789 15.1549 4.75314 15.1782 4.83028 15.1772C5.04023 15.1745 5.25057 15.1766 5.45926 15.1532C5.84032 15.1105 6.19774 15.0012 6.47669 14.7221C6.94562 14.253 7.11793 13.6824 6.98771 13.0369C6.85656 12.3867 6.48236 11.9286 5.83346 11.7275C5.51741 11.6296 5.18876 11.6357 4.86165 11.6316C4.76846 11.6304 4.73616 11.6488 4.73723 11.7512C4.74302 12.3027 4.74142 14.5233 4.73829 15.082Z" fill="#231F20"/>
<path fill-rule="evenodd" clip-rule="evenodd" d="M35.4969 13.8367C36.0605 14.5905 36.6152 15.3324 37.1834 16.0922C37.0949 16.0922 37.0258 16.0922 36.9567 16.0922C36.6397 16.0922 36.3227 16.0873 36.0059 16.0952C35.9099 16.0976 35.8615 16.0618 35.8118 15.9872C35.3724 15.3287 34.9293 14.6727 34.4873 14.0158C34.4814 14.007 34.4741 13.9986 34.4701 13.9889C34.4434 13.9233 34.386 13.9276 34.3351 13.9381C34.2789 13.9496 34.3058 14.0023 34.3057 14.0354C34.3039 14.68 34.3015 15.3246 34.3072 15.9691C34.3081 16.0762 34.2763 16.0971 34.1767 16.0946C33.8991 16.0875 33.6212 16.0901 33.3435 16.0936C33.2735 16.0945 33.2451 16.0818 33.2451 16.0022C33.2474 14.268 33.2471 12.5337 33.246 10.7995C33.246 10.7407 33.2522 10.7089 33.3249 10.7105C33.9228 10.7229 34.5214 10.6866 35.1186 10.7325C35.5333 10.7643 35.9234 10.8765 36.2422 11.1592C36.6247 11.4983 36.7324 11.9433 36.7063 12.4334C36.6681 13.1543 36.2752 13.6303 35.5753 13.8078C35.5518 13.8137 35.5293 13.8246 35.4969 13.8367ZM34.3045 12.3785C34.3045 12.6166 34.3087 12.8549 34.3021 13.0928C34.2998 13.1763 34.3263 13.1926 34.4029 13.1895C34.559 13.1831 34.715 13.1865 34.8712 13.1701C35.3281 13.1218 35.588 12.8577 35.6219 12.4C35.6492 12.0315 35.4608 11.7527 35.1103 11.6377C34.8797 11.5621 34.6419 11.5704 34.4043 11.5657C34.3267 11.5642 34.3003 11.5811 34.3024 11.6641C34.3084 11.9021 34.3045 12.1403 34.3045 12.3785Z" fill="#231F20"/>
<path fill-rule="evenodd" clip-rule="evenodd" d="M29.5864 10.8165C29.5862 10.7358 29.6025 10.7094 29.6896 10.7097C30.6153 10.7133 31.541 10.7127 32.4668 10.7103C32.5388 10.7101 32.5649 10.7242 32.5632 10.8023C32.5579 11.0514 32.558 11.3008 32.5632 11.5499C32.5648 11.625 32.5369 11.6351 32.472 11.6348C31.8988 11.6326 31.3255 11.6362 30.7523 11.631C30.6549 11.6301 30.6354 11.6585 30.6371 11.7499C30.6428 12.0739 30.6422 12.398 30.6373 12.7219C30.6361 12.8028 30.6588 12.8224 30.7383 12.8219C31.2901 12.8184 31.842 12.8223 32.3939 12.8177C32.4811 12.817 32.4978 12.8438 32.4961 12.9239C32.4909 13.1624 32.491 13.401 32.4961 13.6395C32.4977 13.7149 32.4762 13.7328 32.4022 13.7324C31.8539 13.7291 31.3056 13.7336 30.7573 13.7279C30.6551 13.7269 30.6362 13.7592 30.6372 13.8529C30.6422 14.2587 30.6415 14.6646 30.6375 15.0705C30.6367 15.1513 30.6535 15.1779 30.7406 15.1772C31.3138 15.1728 31.8871 15.177 32.4603 15.1727C32.5459 15.1721 32.5651 15.1965 32.5633 15.278C32.5579 15.5235 32.5596 15.7693 32.5625 16.015C32.5633 16.0738 32.5488 16.0938 32.4864 16.0936C31.5464 16.0917 30.6065 16.091 29.6665 16.0945C29.5809 16.0948 29.5877 16.053 29.5878 15.9971C29.5884 15.1282 29.5893 11.6745 29.5864 10.8165Z" fill="#231F20"/>
<path fill-rule="evenodd" clip-rule="evenodd" d="M10.7126 14.5374C10.8542 14.8023 11.0411 15.0181 11.3161 15.1389C11.6117 15.2688 11.916 15.3141 12.2229 15.1769C12.5017 15.0523 12.6523 14.83 12.6643 14.5272C12.6762 14.2274 12.5158 14.0265 12.256 13.8968C11.9574 13.7477 11.6345 13.6592 11.3294 13.5267C11.0312 13.3971 10.7471 13.2472 10.5412 12.9819C10.4154 12.8199 10.3456 12.6346 10.3212 12.4362C10.2125 11.5525 10.6964 10.9206 11.4304 10.7129C12.1971 10.4959 12.8875 10.6866 13.506 11.1726C13.5517 11.2085 13.5673 11.2338 13.5236 11.2886C13.3661 11.4859 13.2122 11.686 13.0634 11.8898C13.0181 11.9518 12.9984 11.9342 12.9572 11.8902C12.7889 11.7107 12.5959 11.5653 12.3456 11.5295C12.0297 11.4843 11.7309 11.5248 11.5111 11.7866C11.3145 12.0207 11.3581 12.3155 11.6065 12.4918C11.8287 12.6497 12.0878 12.7292 12.3384 12.8261C12.5734 12.9169 12.8029 13.0184 13.0226 13.143C13.4708 13.3971 13.7171 13.7698 13.7492 14.2922C13.8034 15.1741 13.3397 15.919 12.4762 16.1408C11.5548 16.3775 10.6545 16.1153 10.0634 15.2428C10.039 15.2068 10.0364 15.1857 10.0699 15.1539C10.284 14.9509 10.496 14.7457 10.7126 14.5374Z" fill="#231F20"/>
<path fill-rule="evenodd" clip-rule="evenodd" d="M23.9497 10.712C24.3149 10.712 24.6637 10.7143 25.0124 10.71C25.0822 10.7091 25.1095 10.7342 25.1336 10.7952C25.4546 11.6079 26.3796 13.9349 26.5216 14.294C26.5865 14.2224 27.5107 11.8784 27.9464 10.7916C27.9638 10.7482 27.9762 10.71 28.0396 10.7105C28.3954 10.7136 28.7512 10.712 29.1222 10.712C29.0375 10.9153 27.5134 14.5316 26.8351 16.1463C26.8083 16.2103 26.7785 16.2312 26.7118 16.2287C26.5767 16.2235 26.4412 16.2239 26.3062 16.2286C26.246 16.2307 26.2188 16.2087 26.1965 16.1547C25.7785 15.1407 24.3119 11.5975 23.9985 10.839C23.9823 10.8002 23.9683 10.7607 23.9497 10.712Z" fill="#231F20"/>
<path fill-rule="evenodd" clip-rule="evenodd" d="M18.227 12.1671C18.0286 11.9773 17.8383 11.8178 17.6111 11.7127C16.7172 11.2993 15.641 11.7433 15.2964 12.6914C15.0311 13.4217 15.1194 14.1161 15.6526 14.7091C16.0091 15.1057 16.4802 15.2503 17.0055 15.2448C17.4223 15.2405 17.7671 15.071 18.0719 14.8017C18.1168 14.762 18.1602 14.7207 18.2038 14.6806C18.2417 14.7013 18.2261 14.7334 18.2261 14.7584C18.2273 15.1109 18.2263 15.4634 18.2277 15.816C18.2279 15.8694 18.2199 15.9021 18.1619 15.9301C17.0823 16.4499 15.7167 16.2441 14.8721 15.3795C14.3495 14.8446 14.0921 14.1987 14.0758 13.451C14.0483 12.1859 14.8913 11.0827 16.0639 10.7283C16.7834 10.5109 17.4859 10.5525 18.1636 10.8926C18.2 10.9109 18.2284 10.9267 18.2281 10.9771C18.2261 11.3651 18.227 11.7529 18.227 12.1671Z" fill="#231F20"/>
<path fill-rule="evenodd" clip-rule="evenodd" d="M9.64585 15.9748C9.64618 16.0632 9.63306 16.0981 9.53195 16.0951C9.24733 16.0868 8.96225 16.0901 8.67743 16.0937C8.6083 16.0947 8.58705 16.0769 8.58711 16.0055C8.58905 14.2713 8.58918 12.5371 8.58691 10.803C8.58678 10.7249 8.61263 10.7095 8.68423 10.7104C8.96552 10.7142 9.24693 10.7161 9.52809 10.7096C9.6212 10.7074 9.64692 10.7298 9.64645 10.8258C9.64225 11.6875 9.64279 15.1202 9.64585 15.9748Z" fill="#231F20"/>
<path d="M21.4051 16.2569C22.9755 16.2569 24.2486 14.9793 24.2486 13.4032C24.2486 11.8272 22.9755 10.5496 21.4051 10.5496C19.8346 10.5496 18.5615 11.8272 18.5615 13.4032C18.5615 14.9793 19.8346 16.2569 21.4051 16.2569Z" fill="url(#paint0_linear_410_1045)"/>
<path d="M21.4051 16.2569C22.9755 16.2569 24.2486 14.9793 24.2486 13.4032C24.2486 11.8272 22.9755 10.5496 21.4051 10.5496C19.8346 10.5496 18.5615 11.8272 18.5615 13.4032C18.5615 14.9793 19.8346 16.2569 21.4051 16.2569Z" fill="url(#paint1_linear_410_1045)"/>
<defs>
<linearGradient id="paint0_linear_410_1045" x1="20.1995" y1="10.8179" x2="22.6106" y2="15.9885" gradientUnits="userSpaceOnUse">
<stop offset="0.3831" stop-color="#E45E26"/>
<stop offset="1" stop-color="#F8A020"/>
</linearGradient>
<linearGradient id="paint1_linear_410_1045" x1="19.9793" y1="10.9336" x2="22.8309" y2="15.8728" gradientUnits="userSpaceOnUse">
<stop stop-color="#80391B"/>
<stop offset="0.1105" stop-color="#843B1B" stop-opacity="0.8161"/>
<stop offset="0.2346" stop-color="#92401D" stop-opacity="0.6096"/>
<stop offset="0.3653" stop-color="#A8481F" stop-opacity="0.3922"/>
<stop offset="0.4996" stop-color="#C75323" stop-opacity="0.1687"/>
<stop offset="0.601" stop-color="#E45E26" stop-opacity="0"/>
<stop offset="1" stop-color="#F8A020" stop-opacity="0"/>
</linearGradient>
</defs>
</svg>
