<svg width="29" height="29" viewBox="0 0 29 29" fill="none" xmlns="http://www.w3.org/2000/svg">
<path d="M28.2536 25.0996L22.6904 19.5363C22.4393 19.2852 21.004 17.9966 20.6234 17.616L20.8322 19.1457C22.3723 17.176 23.2874 14.6985 23.2874 12.0033C23.2874 5.59194 18.0925 0.396973 11.6811 0.396973C5.26967 0.396973 0.074707 5.59194 0.074707 12.0033C0.074707 18.4147 5.26967 23.6097 11.6811 23.6097C14.3762 23.6097 16.8537 22.6946 18.8235 21.1545L17.2938 21.0408C17.5792 21.3262 18.9629 22.7615 19.214 23.0126L24.7773 28.5759C25.3018 29.1004 26.15 29.1004 26.6689 28.5759L28.248 26.9968C28.7726 26.4722 28.7726 25.6241 28.2536 25.0996ZM11.6811 19.1457C7.73602 19.1457 4.53869 15.954 4.53869 12.0033C4.53869 8.05829 7.73044 4.86096 11.6811 4.86096C15.6261 4.86096 18.8235 8.05271 18.8235 12.0033C18.8235 15.9484 15.6317 19.1457 11.6811 19.1457Z" fill="white"/>
</svg>
