<svg width="38" height="34" viewBox="0 0 38 34" fill="none" xmlns="http://www.w3.org/2000/svg">
<path d="M36.7437 8.21366C36.397 7.71317 35.8279 7.41472 35.2199 7.41472H9.88568L7.74653 2.28003C7.16818 0.893474 5.82612 0 4.32464 0H0V3.70736H4.32464L13.1185 24.8115C13.4058 25.5011 14.0806 25.9515 14.8294 25.9515H29.6589C30.4319 25.9515 31.1233 25.4714 31.3958 24.7503L36.9568 9.9209C37.17 9.34997 37.0903 8.7123 36.7437 8.21366ZM28.3743 22.2442H16.0659L11.4316 11.1221H32.5451L28.3743 22.2442Z" fill="white"/>
<path d="M15.7561 33.3662C17.2917 33.3662 18.5366 32.1213 18.5366 30.5857C18.5366 29.0501 17.2917 27.8052 15.7561 27.8052C14.2205 27.8052 12.9756 29.0501 12.9756 30.5857C12.9756 32.1213 14.2205 33.3662 15.7561 33.3662Z" fill="white"/>
<path d="M28.7322 33.3662C30.2678 33.3662 31.5127 32.1213 31.5127 30.5857C31.5127 29.0501 30.2678 27.8052 28.7322 27.8052C27.1965 27.8052 25.9517 29.0501 25.9517 30.5857C25.9517 32.1213 27.1965 33.3662 28.7322 33.3662Z" fill="white"/>
</svg>
